<svg aria-hidden="true" style="position:absolute;width:0;height:0" xmlns="http://www.w3.org/2000/svg" overflow="hidden"><defs><symbol id="icon-facebook" viewBox="0 0 32 32"><path d="M21.3 5.3h3V.2L20 0c-4.2 0-7 2.7-7 7.5V12H8v5.8h4.8V32h5.6V17.6h4.5l.8-5.6h-5.3V8.2c0-1.6.5-3 2.7-3z"/></symbol><symbol id="icon-instagram" viewBox="0 0 32 32"><path d="M32 9.4c0-1.6-.3-2.8-.8-3.8-.3-1.1-1-2-1.8-2.9A8 8 0 0026.6.8 105.7 105.7 0 005 .8h.5a9 9 0 00-2.9 2A8 8 0 001 5.3C.5 6.6 0 7.7 0 9.6a106.3 106.3 0 00.9 17.7l-.1-.6c.4 1 1 2 1.8 2.7a8 8 0 002.8 2c1 .3 2.1.6 3.9.6a112.7 112.7 0 0017.6-.7h-.5c2.2-.8 4-2.5 4.8-4.7l.6-3.9A113.7 113.7 0 0032 9.3v.3zm-2.9 13c0 1.6-.3 2.4-.6 3a4.8 4.8 0 01-3 3c-.5.2-1.3.6-3 .6a108.1 108.1 0 01-16.4-.6h.5c-.7-.2-1.3-.6-1.8-1a6 6 0 01-1.1-2c-.3-.4-.7-1.4-.7-3A109.7 109.7 0 013.7 6v.6c.1-.7.6-1.3 1.1-1.8.5-.6 1.1-1 1.8-1.3.6-.1 1.6-.5 3.2-.5a108 108 0 0116.1.6h-.5a4 4 0 012 1.2c.4.5 1 1.1 1 1.8.4.6.6 1.4.7 3l.2 6.4-.2 6.7v-.3z"/><path d="M16 7.8h-1.1A8.2 8.2 0 1016 24a8.2 8.2 0 000-16zm0 13.5a5.3 5.3 0 010-10.6 5.3 5.3 0 010 10.6zM26.6 7.5a2 2 0 01-3.9 0 2 2 0 013.9 0z"/></symbol><symbol id="icon-linkedin" viewBox="0 0 32 32"><path d="M32 32V20.3c0-5.7-1.3-10.2-8-10.2a7 7 0 00-6.2 3.5v-3h-6.6V32h6.6V21.4c0-2.8.4-5.4 4-5.4 3.3 0 3.5 3.2 3.5 5.6V32H32zM.5 10.6h6.7V32H.5V10.6zM3.8 0C1.8 0 0 1.6 0 3.8 0 6 1.6 7.7 3.8 7.7a3.8 3.8 0 100-7.7z"/></symbol><symbol id="icon-twitter" viewBox="0 0 36 32"><path d="M35.6 5a15 15 0 01-4.3 1 7.1 7.1 0 003.2-3.8c-1.4.8-2.9 1.4-4.6 1.7a7.3 7.3 0 00-12.5 6.6c-6-.4-11.4-3.2-15-7.7-.5 1.1-1 2.4-1 3.7 0 2.6 1.4 4.8 3.4 6.1a7 7 0 01-3.4-.9c0 3.6 2.5 6.6 5.9 7.1a7 7 0 01-3.4.2c1 3 3.6 5.2 7 5.2a14.5 14.5 0 01-11 3H0a20 20 0 0011.2 3A20.6 20.6 0 0031.8 9c1.6-1 2.7-2.3 3.8-3.7z"/></symbol></defs></svg>